# xmcd
#
# Track frame offsets: 
#        187
#        15230
#        32585
#        49212
#        72855
#        88802
#        99632
#        115860
#        133755
#        148392
#        163397
#
# Disc length: 2411 seconds
#
# Revision: 7
# Processed by: cddbd v1.5.2PL0 Copyright (c) Steve Scherf et al.
# Submitted via: ExactAudioCopyFreeDBPlugin 1.0
#
DISCID=9c09690b
DTITLE=The Mavericks - What a Crying Shame
DYEAR=1994
DGENRE=Country
TTITLE0=There Goes My Heart
TTITLE1=What a Crying Shame
TTITLE2=Pretend
TTITLE3=I Should Have Been True
TTITLE4=The Things You Said to Me
TTITLE5=Just a Memory
TTITLE6=All That Heaven Will Allow
TTITLE7=Neon Blue
TTITLE8=O What a Thrill
TTITLE9=Ain't Found Nobody
TTITLE10=The Losing Side of Me
EXTD=YEAR: 1994
EXTT0=
EXTT1=
EXTT2=
EXTT3=
EXTT4=
EXTT5=
EXTT6=
EXTT7=
EXTT8=
EXTT9=
EXTT10=
PLAYORDER=
